<mxfile host="app.diagrams.net" modified="2022-02-27T13:14:51.524Z" agent="5.0 (Windows NT 10.0; Win64; x64) AppleWebKit/537.36 (KHTML, like Gecko) Chrome/98.0.4758.102 Safari/537.36 Edg/98.0.1108.56" etag="WrJ5Mf5i59NvTX22IHF-" version="16.6.4" type="github">
  <diagram id="pSjn5WRUQlgRoC1lH0_e" name="Page-1">
    <mxGraphModel dx="1058" dy="794" grid="1" gridSize="10" guides="1" tooltips="1" connect="1" arrows="1" fold="1" page="1" pageScale="1" pageWidth="827" pageHeight="1169" math="0" shadow="0">
      <root>
        <mxCell id="0" />
        <mxCell id="1" parent="0" />
        <mxCell id="SNEwmq4TJXL0S9nF9Q6m-29" value="" style="rounded=1;whiteSpace=wrap;html=1;fontFamily=Times New Roman;fontSize=15;strokeWidth=2;dashed=1;fillColor=#f5f5f5;strokeColor=#666666;fontColor=#333333;fontStyle=1" vertex="1" parent="1">
          <mxGeometry x="168" y="350" width="640" height="130" as="geometry" />
        </mxCell>
        <mxCell id="SNEwmq4TJXL0S9nF9Q6m-4" style="edgeStyle=orthogonalEdgeStyle;rounded=0;orthogonalLoop=1;jettySize=auto;html=1;entryX=0.5;entryY=0;entryDx=0;entryDy=0;fontSize=15;fontStyle=1;strokeWidth=2;" edge="1" parent="1" source="SNEwmq4TJXL0S9nF9Q6m-2" target="SNEwmq4TJXL0S9nF9Q6m-3">
          <mxGeometry relative="1" as="geometry">
            <Array as="points" />
          </mxGeometry>
        </mxCell>
        <mxCell id="SNEwmq4TJXL0S9nF9Q6m-2" value="&lt;font style=&quot;font-size: 15px&quot;&gt;&lt;span&gt;OWL File&lt;/span&gt;&lt;/font&gt;" style="shape=document;whiteSpace=wrap;html=1;boundedLbl=1;strokeWidth=2;fontStyle=1" vertex="1" parent="1">
          <mxGeometry x="390" y="120" width="120" height="80" as="geometry" />
        </mxCell>
        <mxCell id="SNEwmq4TJXL0S9nF9Q6m-3" value="&lt;font face=&quot;Times New Roman&quot;&gt;&lt;span&gt;readOwl()&lt;br&gt;&lt;/span&gt;&lt;span&gt;owl拆解函数&lt;/span&gt;&lt;/font&gt;&lt;span&gt;&lt;br&gt;&lt;/span&gt;" style="rounded=1;whiteSpace=wrap;html=1;fontSize=15;strokeWidth=2;fontStyle=1" vertex="1" parent="1">
          <mxGeometry x="390" y="230" width="120" height="50" as="geometry" />
        </mxCell>
        <mxCell id="SNEwmq4TJXL0S9nF9Q6m-24" style="edgeStyle=orthogonalEdgeStyle;rounded=0;orthogonalLoop=1;jettySize=auto;html=1;exitX=1;exitY=0.5;exitDx=0;exitDy=0;entryX=0;entryY=0.5;entryDx=0;entryDy=0;fontFamily=Times New Roman;fontSize=15;strokeWidth=2;dashed=1;dashPattern=1 1;fontStyle=1" edge="1" parent="1" source="SNEwmq4TJXL0S9nF9Q6m-5" target="SNEwmq4TJXL0S9nF9Q6m-6">
          <mxGeometry relative="1" as="geometry" />
        </mxCell>
        <mxCell id="SNEwmq4TJXL0S9nF9Q6m-33" style="rounded=0;orthogonalLoop=1;jettySize=auto;html=1;exitX=0.5;exitY=1;exitDx=0;exitDy=0;fontFamily=Times New Roman;fontSize=15;strokeWidth=2;entryX=0.5;entryY=0;entryDx=0;entryDy=0;fontStyle=1" edge="1" parent="1" source="SNEwmq4TJXL0S9nF9Q6m-5" target="SNEwmq4TJXL0S9nF9Q6m-32">
          <mxGeometry relative="1" as="geometry" />
        </mxCell>
        <mxCell id="SNEwmq4TJXL0S9nF9Q6m-5" value="&lt;span style=&quot;font-size: 12.0pt&quot;&gt;&lt;span&gt;&lt;font face=&quot;Times New Roman&quot;&gt;头部&lt;br&gt;（&lt;span lang=&quot;EN-US&quot;&gt;header&lt;/span&gt;）&lt;/font&gt;&lt;/span&gt;&lt;/span&gt;" style="rounded=0;whiteSpace=wrap;html=1;fontSize=15;strokeWidth=2;fontStyle=1" vertex="1" parent="1">
          <mxGeometry x="70" y="390" width="70" height="50" as="geometry" />
        </mxCell>
        <mxCell id="SNEwmq4TJXL0S9nF9Q6m-25" style="edgeStyle=orthogonalEdgeStyle;rounded=0;orthogonalLoop=1;jettySize=auto;html=1;exitX=1;exitY=0.5;exitDx=0;exitDy=0;entryX=0;entryY=0.5;entryDx=0;entryDy=0;fontFamily=Times New Roman;fontSize=15;strokeWidth=2;dashed=1;dashPattern=1 1;fontStyle=1" edge="1" parent="1" source="SNEwmq4TJXL0S9nF9Q6m-6" target="SNEwmq4TJXL0S9nF9Q6m-7">
          <mxGeometry relative="1" as="geometry" />
        </mxCell>
        <mxCell id="SNEwmq4TJXL0S9nF9Q6m-34" style="edgeStyle=none;rounded=0;orthogonalLoop=1;jettySize=auto;html=1;exitX=0.5;exitY=1;exitDx=0;exitDy=0;entryX=0.5;entryY=0;entryDx=0;entryDy=0;fontFamily=Times New Roman;fontSize=15;strokeWidth=2;fontStyle=1" edge="1" parent="1" source="SNEwmq4TJXL0S9nF9Q6m-6" target="SNEwmq4TJXL0S9nF9Q6m-32">
          <mxGeometry relative="1" as="geometry" />
        </mxCell>
        <mxCell id="SNEwmq4TJXL0S9nF9Q6m-6" value="&lt;span style=&quot;font-size: 12.0pt&quot;&gt;&lt;span&gt;&lt;font face=&quot;Times New Roman&quot;&gt;实体关系集合（&lt;span lang=&quot;EN-US&quot;&gt;objectPropertyList&lt;/span&gt;）&lt;/font&gt;&lt;/span&gt;&lt;/span&gt;" style="rounded=0;whiteSpace=wrap;html=1;fontSize=15;strokeWidth=2;fontStyle=1" vertex="1" parent="1">
          <mxGeometry x="190" y="390" width="150" height="50" as="geometry" />
        </mxCell>
        <mxCell id="SNEwmq4TJXL0S9nF9Q6m-26" style="edgeStyle=orthogonalEdgeStyle;rounded=0;orthogonalLoop=1;jettySize=auto;html=1;exitX=1;exitY=0.5;exitDx=0;exitDy=0;dashed=1;dashPattern=1 1;fontFamily=Times New Roman;fontSize=15;strokeWidth=2;fontStyle=1" edge="1" parent="1" source="SNEwmq4TJXL0S9nF9Q6m-7" target="SNEwmq4TJXL0S9nF9Q6m-8">
          <mxGeometry relative="1" as="geometry" />
        </mxCell>
        <mxCell id="SNEwmq4TJXL0S9nF9Q6m-35" style="edgeStyle=none;rounded=0;orthogonalLoop=1;jettySize=auto;html=1;exitX=0.5;exitY=1;exitDx=0;exitDy=0;fontFamily=Times New Roman;fontSize=15;strokeWidth=2;entryX=0.5;entryY=0;entryDx=0;entryDy=0;fontStyle=1" edge="1" parent="1" source="SNEwmq4TJXL0S9nF9Q6m-7" target="SNEwmq4TJXL0S9nF9Q6m-32">
          <mxGeometry relative="1" as="geometry">
            <mxPoint x="460" y="530" as="targetPoint" />
          </mxGeometry>
        </mxCell>
        <mxCell id="SNEwmq4TJXL0S9nF9Q6m-7" value="&lt;span style=&quot;font-size: 12.0pt&quot;&gt;&lt;span&gt;&lt;font face=&quot;Times New Roman&quot;&gt;实体属性集合（&lt;span lang=&quot;EN-US&quot;&gt;dataPropertyList&lt;/span&gt;）&lt;/font&gt;&lt;/span&gt;&lt;/span&gt;" style="rounded=0;whiteSpace=wrap;html=1;fontSize=15;strokeWidth=2;fontStyle=1" vertex="1" parent="1">
          <mxGeometry x="380" y="390" width="140" height="50" as="geometry" />
        </mxCell>
        <mxCell id="SNEwmq4TJXL0S9nF9Q6m-27" style="edgeStyle=orthogonalEdgeStyle;rounded=0;orthogonalLoop=1;jettySize=auto;html=1;exitX=1;exitY=0.5;exitDx=0;exitDy=0;dashed=1;dashPattern=1 1;fontFamily=Times New Roman;fontSize=15;strokeWidth=2;fontStyle=1" edge="1" parent="1" source="SNEwmq4TJXL0S9nF9Q6m-8" target="SNEwmq4TJXL0S9nF9Q6m-9">
          <mxGeometry relative="1" as="geometry" />
        </mxCell>
        <mxCell id="SNEwmq4TJXL0S9nF9Q6m-36" style="edgeStyle=none;rounded=0;orthogonalLoop=1;jettySize=auto;html=1;exitX=0.5;exitY=1;exitDx=0;exitDy=0;entryX=0.5;entryY=0;entryDx=0;entryDy=0;fontFamily=Times New Roman;fontSize=15;strokeWidth=2;fontStyle=1" edge="1" parent="1" source="SNEwmq4TJXL0S9nF9Q6m-8" target="SNEwmq4TJXL0S9nF9Q6m-32">
          <mxGeometry relative="1" as="geometry" />
        </mxCell>
        <mxCell id="SNEwmq4TJXL0S9nF9Q6m-8" value="&lt;span&gt;&lt;span style=&quot;font-size: 12.0pt&quot;&gt;&lt;font face=&quot;Times New Roman&quot;&gt;类集合（&lt;span lang=&quot;EN-US&quot;&gt;classesList&lt;/span&gt;）&lt;/font&gt;&lt;/span&gt;&lt;/span&gt;" style="rounded=0;whiteSpace=wrap;html=1;fontSize=15;strokeWidth=2;fontStyle=1" vertex="1" parent="1">
          <mxGeometry x="560" y="390" width="90" height="50" as="geometry" />
        </mxCell>
        <mxCell id="SNEwmq4TJXL0S9nF9Q6m-28" style="edgeStyle=orthogonalEdgeStyle;rounded=0;orthogonalLoop=1;jettySize=auto;html=1;exitX=1;exitY=0.5;exitDx=0;exitDy=0;dashed=1;dashPattern=1 1;fontFamily=Times New Roman;fontSize=15;strokeWidth=2;fontStyle=1" edge="1" parent="1" source="SNEwmq4TJXL0S9nF9Q6m-9" target="SNEwmq4TJXL0S9nF9Q6m-10">
          <mxGeometry relative="1" as="geometry" />
        </mxCell>
        <mxCell id="SNEwmq4TJXL0S9nF9Q6m-37" style="edgeStyle=none;rounded=0;orthogonalLoop=1;jettySize=auto;html=1;exitX=0.5;exitY=1;exitDx=0;exitDy=0;entryX=0.5;entryY=0;entryDx=0;entryDy=0;fontFamily=Times New Roman;fontSize=15;strokeWidth=2;fontStyle=1" edge="1" parent="1" source="SNEwmq4TJXL0S9nF9Q6m-9" target="SNEwmq4TJXL0S9nF9Q6m-32">
          <mxGeometry relative="1" as="geometry" />
        </mxCell>
        <mxCell id="SNEwmq4TJXL0S9nF9Q6m-9" value="&lt;span&gt;&lt;font face=&quot;Times New Roman&quot;&gt;&lt;span style=&quot;font-size: 12pt&quot;&gt;实例集合（&lt;/span&gt;&lt;span lang=&quot;EN-US&quot; style=&quot;font-size: 10.5pt&quot;&gt;individualList&lt;/span&gt;&lt;span style=&quot;font-size: 12pt&quot;&gt;）&lt;/span&gt;&lt;/font&gt;&lt;/span&gt;" style="rounded=0;whiteSpace=wrap;html=1;fontSize=15;strokeWidth=2;fontStyle=1" vertex="1" parent="1">
          <mxGeometry x="690" y="390" width="100" height="50" as="geometry" />
        </mxCell>
        <mxCell id="SNEwmq4TJXL0S9nF9Q6m-38" style="edgeStyle=none;rounded=0;orthogonalLoop=1;jettySize=auto;html=1;exitX=0.5;exitY=1;exitDx=0;exitDy=0;fontFamily=Times New Roman;fontSize=15;strokeWidth=2;entryX=0.5;entryY=0;entryDx=0;entryDy=0;fontStyle=1" edge="1" parent="1" source="SNEwmq4TJXL0S9nF9Q6m-10" target="SNEwmq4TJXL0S9nF9Q6m-32">
          <mxGeometry relative="1" as="geometry">
            <mxPoint x="530" y="550" as="targetPoint" />
          </mxGeometry>
        </mxCell>
        <mxCell id="SNEwmq4TJXL0S9nF9Q6m-10" value="&lt;span style=&quot;font-size: 12.0pt&quot;&gt;&lt;span&gt;&lt;font face=&quot;Times New Roman&quot;&gt;尾部&lt;br&gt;（&lt;span lang=&quot;EN-US&quot;&gt;footer&lt;/span&gt;）&lt;/font&gt;&lt;/span&gt;&lt;/span&gt;" style="rounded=0;whiteSpace=wrap;html=1;fontSize=15;strokeWidth=2;fontStyle=1" vertex="1" parent="1">
          <mxGeometry x="840" y="390" width="63" height="50" as="geometry" />
        </mxCell>
        <mxCell id="SNEwmq4TJXL0S9nF9Q6m-18" value="" style="endArrow=classic;html=1;rounded=0;fontFamily=Times New Roman;fontSize=15;strokeWidth=2;endWidth=13;exitX=0.5;exitY=1;exitDx=0;exitDy=0;entryX=0.5;entryY=0;entryDx=0;entryDy=0;fontStyle=1" edge="1" parent="1" source="SNEwmq4TJXL0S9nF9Q6m-3" target="SNEwmq4TJXL0S9nF9Q6m-5">
          <mxGeometry width="50" height="50" relative="1" as="geometry">
            <mxPoint x="440" y="300" as="sourcePoint" />
            <mxPoint x="150" y="370" as="targetPoint" />
          </mxGeometry>
        </mxCell>
        <mxCell id="SNEwmq4TJXL0S9nF9Q6m-19" value="" style="endArrow=classic;html=1;rounded=0;fontFamily=Times New Roman;fontSize=15;strokeWidth=2;endWidth=13;entryX=0.5;entryY=0;entryDx=0;entryDy=0;fontStyle=1" edge="1" parent="1" target="SNEwmq4TJXL0S9nF9Q6m-6">
          <mxGeometry width="50" height="50" relative="1" as="geometry">
            <mxPoint x="450" y="280" as="sourcePoint" />
            <mxPoint x="270" y="370" as="targetPoint" />
          </mxGeometry>
        </mxCell>
        <mxCell id="SNEwmq4TJXL0S9nF9Q6m-20" value="" style="endArrow=classic;html=1;rounded=0;fontFamily=Times New Roman;fontSize=15;strokeWidth=2;endWidth=13;exitX=0.5;exitY=1;exitDx=0;exitDy=0;entryX=0.5;entryY=0;entryDx=0;entryDy=0;fontStyle=1" edge="1" parent="1" source="SNEwmq4TJXL0S9nF9Q6m-3" target="SNEwmq4TJXL0S9nF9Q6m-7">
          <mxGeometry width="50" height="50" relative="1" as="geometry">
            <mxPoint x="440" y="300" as="sourcePoint" />
            <mxPoint x="430" y="370" as="targetPoint" />
          </mxGeometry>
        </mxCell>
        <mxCell id="SNEwmq4TJXL0S9nF9Q6m-21" value="" style="endArrow=classic;html=1;rounded=0;fontFamily=Times New Roman;fontSize=15;strokeWidth=2;endWidth=13;entryX=0.5;entryY=0;entryDx=0;entryDy=0;fontStyle=1" edge="1" parent="1" target="SNEwmq4TJXL0S9nF9Q6m-8">
          <mxGeometry width="50" height="50" relative="1" as="geometry">
            <mxPoint x="450" y="280" as="sourcePoint" />
            <mxPoint x="560" y="370" as="targetPoint" />
          </mxGeometry>
        </mxCell>
        <mxCell id="SNEwmq4TJXL0S9nF9Q6m-22" value="" style="endArrow=classic;html=1;rounded=0;fontFamily=Times New Roman;fontSize=15;strokeWidth=2;endWidth=13;exitX=0.5;exitY=1;exitDx=0;exitDy=0;entryX=0.5;entryY=0;entryDx=0;entryDy=0;fontStyle=1" edge="1" parent="1" source="SNEwmq4TJXL0S9nF9Q6m-3" target="SNEwmq4TJXL0S9nF9Q6m-9">
          <mxGeometry width="50" height="50" relative="1" as="geometry">
            <mxPoint x="440" y="300" as="sourcePoint" />
            <mxPoint x="680" y="370" as="targetPoint" />
          </mxGeometry>
        </mxCell>
        <mxCell id="SNEwmq4TJXL0S9nF9Q6m-23" value="" style="endArrow=classic;html=1;rounded=0;fontFamily=Times New Roman;fontSize=15;strokeWidth=2;endWidth=13;exitX=0.5;exitY=1;exitDx=0;exitDy=0;entryX=0.5;entryY=0;entryDx=0;entryDy=0;fontStyle=1" edge="1" parent="1" source="SNEwmq4TJXL0S9nF9Q6m-3" target="SNEwmq4TJXL0S9nF9Q6m-10">
          <mxGeometry width="50" height="50" relative="1" as="geometry">
            <mxPoint x="440" y="300" as="sourcePoint" />
            <mxPoint x="780" y="370" as="targetPoint" />
          </mxGeometry>
        </mxCell>
        <mxCell id="SNEwmq4TJXL0S9nF9Q6m-30" value="&lt;span&gt;面向对象CRUD&lt;/span&gt;" style="text;html=1;strokeColor=none;fillColor=none;align=center;verticalAlign=middle;whiteSpace=wrap;rounded=0;dashed=1;fontFamily=Times New Roman;fontSize=15;fontStyle=1" vertex="1" parent="1">
          <mxGeometry x="440" y="360" width="150" height="30" as="geometry" />
        </mxCell>
        <mxCell id="SNEwmq4TJXL0S9nF9Q6m-40" style="edgeStyle=none;rounded=0;orthogonalLoop=1;jettySize=auto;html=1;exitX=0.5;exitY=1;exitDx=0;exitDy=0;entryX=0.5;entryY=0;entryDx=0;entryDy=0;fontFamily=Times New Roman;fontSize=15;strokeWidth=2;fontStyle=1" edge="1" parent="1" source="SNEwmq4TJXL0S9nF9Q6m-32" target="SNEwmq4TJXL0S9nF9Q6m-39">
          <mxGeometry relative="1" as="geometry" />
        </mxCell>
        <mxCell id="SNEwmq4TJXL0S9nF9Q6m-32" value="&lt;span lang=&quot;EN-US&quot;&gt;&lt;font face=&quot;Times New Roman&quot; style=&quot;font-size: 15px&quot;&gt;&lt;span&gt;generateOwl()&lt;br&gt;&lt;/span&gt;&lt;/font&gt;&lt;/span&gt;&lt;span&gt;&lt;font face=&quot;Times New Roman&quot; style=&quot;font-size: 15px&quot;&gt;owl重组函数&lt;/font&gt;&lt;br&gt;&lt;/span&gt;" style="rounded=1;whiteSpace=wrap;html=1;fontSize=15;strokeWidth=2;fontStyle=1" vertex="1" parent="1">
          <mxGeometry x="390" y="546" width="120" height="50" as="geometry" />
        </mxCell>
        <mxCell id="SNEwmq4TJXL0S9nF9Q6m-39" value="&lt;font style=&quot;font-size: 15px&quot;&gt;&lt;span&gt;New OWL File&lt;/span&gt;&lt;/font&gt;" style="shape=document;whiteSpace=wrap;html=1;boundedLbl=1;strokeWidth=2;fontStyle=1" vertex="1" parent="1">
          <mxGeometry x="390" y="646" width="120" height="80" as="geometry" />
        </mxCell>
        <mxCell id="SNEwmq4TJXL0S9nF9Q6m-41" value="基于正则表达式的正向拆解" style="text;html=1;strokeColor=none;fillColor=default;align=center;verticalAlign=middle;whiteSpace=wrap;rounded=0;dashed=1;fontFamily=Times New Roman;fontSize=15;fontStyle=1;shadow=0;glass=0;" vertex="1" parent="1">
          <mxGeometry x="335" y="300" width="230" height="30" as="geometry" />
        </mxCell>
        <mxCell id="SNEwmq4TJXL0S9nF9Q6m-42" value="&lt;span style=&quot;color: rgb(0 , 0 , 0) ; font-family: &amp;#34;times new roman&amp;#34; ; font-size: 15px ; font-style: normal ; font-weight: 700 ; letter-spacing: normal ; text-indent: 0px ; text-transform: none ; word-spacing: 0px ; background-color: rgb(248 , 249 , 250) ; display: inline ; float: none&quot;&gt;基于规则顺序遍历的反向重组&lt;/span&gt;" style="text;whiteSpace=wrap;html=1;fontSize=15;fontFamily=Times New Roman;fillColor=default;align=center;" vertex="1" parent="1">
          <mxGeometry x="345" y="491" width="210" height="30" as="geometry" />
        </mxCell>
      </root>
    </mxGraphModel>
  </diagram>
</mxfile>
